<svg width="22" height="20" viewBox="0 0 22 20" fill="none" xmlns="http://www.w3.org/2000/svg">
<path d="M20.1818 0.24676C19.921 0.265737 19.665 0.326928 19.4238 0.427948H19.4205C19.1889 0.51976 18.088 0.982885 16.4143 1.68489L10.4164 4.21095C6.11257 6.02282 1.88188 7.80707 1.88188 7.80707L1.93226 7.78757C1.93226 7.78757 1.64057 7.88345 1.33588 8.09226C1.14765 8.21204 0.985672 8.36876 0.859756 8.55295C0.710256 8.77232 0.590006 9.10789 0.634694 9.45482C0.707819 10.0414 1.08807 10.3933 1.36107 10.5874C1.63732 10.7841 1.90057 10.8759 1.90057 10.8759H1.90707L5.87451 12.2124C6.05244 12.7836 7.0835 16.1734 7.33132 16.9542C7.47757 17.4206 7.61975 17.7123 7.79769 17.9349C7.88382 18.0486 7.98457 18.1437 8.10563 18.2201C8.16857 18.2567 8.23567 18.2856 8.3055 18.3062L8.26488 18.2965C8.27707 18.2997 8.28682 18.3095 8.29575 18.3127C8.32825 18.3216 8.35019 18.3249 8.39163 18.3314C9.01969 18.5215 9.52425 18.1315 9.52425 18.1315L9.55269 18.1088L11.8951 15.976L15.8211 18.9879L15.9105 19.0261C16.7287 19.3852 17.5574 19.1853 17.9954 18.8327C18.4366 18.4776 18.608 18.0235 18.608 18.0235L18.6364 17.9503L21.6703 2.40801C21.7564 2.02451 21.7784 1.66539 21.6833 1.31682C21.5853 0.964056 21.3589 0.660654 21.0488 0.466135C20.7883 0.307791 20.4862 0.231362 20.1818 0.24676ZM20.0998 1.91239C20.0965 1.96357 20.1063 1.95789 20.0835 2.0562V2.06514L17.0781 17.4458C17.0651 17.4677 17.0431 17.5156 16.983 17.5636C16.9196 17.614 16.8693 17.6456 16.6052 17.5408L11.8033 13.8594L8.90269 16.5033L9.51207 12.6114L17.3576 5.29889C17.6809 4.99826 17.5729 4.93489 17.5729 4.93489C17.5956 4.56601 17.0846 4.82682 17.0846 4.82682L7.19157 10.9555L7.18832 10.9393L2.44657 9.3427V9.33945L2.43438 9.33701C2.44269 9.33425 2.45083 9.33099 2.45876 9.32726L2.48476 9.31426L2.50994 9.30532C2.50994 9.30532 6.74388 7.52107 11.0477 5.7092C13.2024 4.80164 15.3734 3.88757 17.0431 3.18232C18.7128 2.48114 19.947 1.96682 20.0169 1.9392C20.0835 1.9132 20.0518 1.9132 20.0998 1.9132V1.91239Z" fill="white"/>
</svg>
